<?xml version="1.0" encoding="utf-8"?>
<!-- Generator: Adobe Illustrator 19.0.0, SVG Export Plug-In . SVG Version: 6.00 Build 0)  -->
<svg version="1.1" id="Layer_1" xmlns="http://www.w3.org/2000/svg" xmlns:xlink="http://www.w3.org/1999/xlink" x="0px" y="0px"
	 viewBox="0 0 189 98" style="enable-background:new 0 0 189 98;" xml:space="preserve">
<style type="text/css">
	.st0{fill:#FFFFFF;}
	.st1{fill:#78480E;}
</style>
<path class="st0" d="M72,42.6c0,2.1,0.1,3.9-0.1,5.6c-0.1,0.6-1,1.5-1.5,1.5c-6,0.1-11.9,0.1-17.9,0.1c-1.8,0-1.7-1.2-1.7-2.5
	c0-8.2,0-16.3,0-24.5c0-0.9,0-1.9,0-2.9c-1.7,0-3.1,0-4.9,0c0,0.9-0.1,1.8-0.1,2.7c0,8.3,0,16.5,0,24.8c0,1.7-0.5,2.4-2.3,2.4
	c-5.1,0-5.1,0.1-5.1-5.1c0-3.1,0-6.3,0-9.6c-2.2,0-4.2,0-6.6,0c0,4.8,0,9.6,0,14.4c-2.6,0-4.8,0-7.3,0c0-12.3,0-24.3,0-36.6
	c-2.1,0-4,0-6.1,0c0,12.6,0,25.2,0,38.2c2.1,0,4.2,0,6.3,0c5.3,0,7.7,2.2,7.9,7.5c0.1,4.7,0.2,9.4-0.1,14c-0.1,1.8-1.6,3.4-2.3,5.1
	c-0.4,0.9-0.9,1.9-0.8,2.8c1.3,5.8,1.4,5.8,7.3,5.6c0.2,0,0.5-0.1,1-0.1c0-9.7,0-19.5,0-29.4c7.1,0,13.9,0,21.1,0c0,3.3,0,6.5,0,9.8
	c0,3.2-0.1,6.5,0,9.7c0.1,2-0.7,2.5-2.5,2.4c-3.6-0.1-7.3,0-11.1,0c0,2.6,0,5,0,7.5c7.8,0,15.5,0,23.4,0c0-7.4,0-14.9,0-22.6
	c-1.5,0-3-0.1-4.5,0c-1.8,0.2-2.4-0.6-2.3-2.4c0.1-1.4,0-2.9,0-4.5c15,0,29.7,0,44.7,0c0,9.8,0,19.5,0,29.4c1.9,0,3.6,0,5.6,0
	c0-0.8,0-1.7,0-2.6c0-8.2,0-16.3,0-24.5c0-1.8,0.5-2.6,2.4-2.5c3.9,0.1,7.8,0,11.7,0.1c4.4,0.1,6.8,2.4,6.9,6.8
	c0.1,4.1,0.1,8.2,0,12.2c0,1.2-0.2,2.8-1,3.6c-2.5,2.3-1.2,4.6-0.4,7.1c2.1,0,4.2,0,6.6,0c0-6.7,0-13.3,0-19.9c0-1.2,0-2.4,0.2-3.6
	c0.6-4.2,2.8-6.1,7.1-6.1c2.1,0,4.2,0,6.5,0c0.1-1.9,0.2-3.7,0.3-5.5c2.4,0,4.6,0,7.1,0c0,11.9,0,23.6,0,35.6c5.9,0,11.4,0,16.9,0
	c1.5,0,2.2-0.9,2.2-2.5c0.2-4.8,0.2-4.8-4.4-6.3c-2.4-0.8-4.8-1.7-7.3-2.4c-1.6-0.5-2.4-1.3-2.4-3.1c0.1-3.1,0-6.1,0.1-9.2
	c0.2-4.2,2.6-6.6,6.7-6.7c4.7-0.1,9.3,0,14.1,0c0,2.3,0,4.3,0,6.8c-3.4,0-6.9,0-10.3,0c-1.5,0-3.4-0.4-3.4,2
	c0.1,1.9-1.3,4.5,2.2,5.3c3.2,0.7,6.3,2,9.5,3c1.7,0.5,2.3,1.4,2.2,3.1c-0.1,3,0,6,0,8.9c-0.1,4.3-3.3,7.7-7.5,7.7
	c-16.8,0.1-33.5,0-50.3,0c-0.7,0-1.7-0.9-2-1.6c-0.7-1.9-1.1-3.9-1.5-5.9c-0.9-3.8-0.9-3.8-5.3-3.4c0,3.5,0,7.1,0,10.8
	c-11.4,0-22.3,0-33.5,0c-0.1-0.8-0.3-1.6-0.3-2.4c0-5.7,0.1-11.4-0.1-17.1c0-2.2,0.8-2.7,2.9-2.7c3.5,0.1,7.1,0,10.8,0
	c0-2.6,0-4.9,0-7.4c-7.7,0-15.2,0-22.9,0c0,9.7,0,19.5,0,29.7c-1,0-1.8,0-2.6,0c-15.2,0-30.5,0-45.7,0c-1.8,0-2.8-0.4-3.1-2.3
	c-0.6-3.1-1.5-6.1-2.3-9.1c-0.7-2.8-0.7-2.8-4.2-2.3c0,4.5,0,9,0,13.5c-7.3,0.9-7.3,0.9-7.3-6c0-23.7,0-47.5,0-71.2
	c0-0.9,0-1.9,0-3.1c-2.2,0-4.3,0-6.8,0c0-2.2-0.1-4.1,0.1-6c0-0.4,0.8-1.1,1.3-1.1c8.7-0.1,17.3,0,26.3,0c0,7.5,0,14.7,0,22.1
	c2.3,0,4.3,0,6.7,0c0-4.1,0.1-8.1,0-12.2c-0.1-2.2,0.6-2.9,2.9-2.9c9.4,0.1,18.7,0.1,28.1,0c2.2,0,2.7,0.7,2.7,2.8
	c-0.1,5.6-0.2,11.2,0,16.8c0.1,2.3-0.8,2.9-2.9,2.8c-3.5-0.2-7.1,0-10.8,0c0,2.6,0,4.9,0,7.6C62.8,42.6,67.2,42.6,72,42.6z
	 M152.3,63.3c-1.2,0-2.2,0-3.1,0c-3.3,0-3.6,0.4-3.6,3.6c0,4.5,0,9,0,13.5c0,6.1,0,6.1,6.1,5.7c0.2,0,0.3-0.1,0.6-0.2
	C152.3,78.5,152.3,71.1,152.3,63.3z M18.3,72.1c1.5,0,2.9-0.1,4.2,0c2,0.1,3-0.7,2.9-2.8c-0.1-1.7,0-3.4,0-5.1c0-6.6-0.1-6.6-6.7-6
	c-0.1,0-0.1,0.1-0.4,0.2C18.3,62.7,18.3,67.2,18.3,72.1z M119.4,63.4c0,3.9,0,7.8,0,11.7c7.1,0.5,7.2,0.5,7.2-5.9
	C126.6,62.8,126.1,62.4,119.4,63.4z M64.5,27.7c0-2.7,0-5.2,0-7.8c-2.2,0-4.1,0-6.2,0c0,2.7,0,5.1,0,7.8
	C60.4,27.7,62.3,27.7,64.5,27.7z M93.1,78.3c0,2.6,0,5.1,0,7.6c2.2,0,4.2,0,6.3,0c0-2.6,0-5,0-7.6C97.3,78.3,95.2,78.3,93.1,78.3z
	 M45.2,71.2c2.3,0,4.3,0,6.3,0c0-2.6,0-5,0-7.5c-2.2,0-4.2,0-6.3,0C45.2,66.3,45.2,68.6,45.2,71.2z"/>
<path class="st1" d="M20.6,187.6c0-1.8,0-3.5,0-5.3c0.1,0,0.1,0,0.2,0c0,1.8,0,3.5,0,5.3C20.7,187.6,20.7,187.6,20.6,187.6z"/>
</svg>
